<?xml version="1.0" standalone="no"?>
<!DOCTYPE svg PUBLIC "-//W3C//DTD SVG 20010904//EN"
 "http://www.w3.org/TR/2001/REC-SVG-20010904/DTD/svg10.dtd">
<svg version="1.0" xmlns="http://www.w3.org/2000/svg"
 width="1440.000000pt" height="360.000000pt" viewBox="0 0 1440.000000 360.000000"
 preserveAspectRatio="xMidYMid meet">

<g transform="translate(0.000000,360.000000) scale(0.100000,-0.100000)"
fill="#000000" stroke="none">
<path d="M1844 3389 c-200 -22 -418 -100 -577 -206 -58 -39 -81 -48 -116 -48
-35 -1 -48 -6 -67 -29 -14 -15 -24 -40 -24 -57 0 -22 -15 -48 -55 -95 -128
-151 -224 -334 -277 -529 l-33 -120 0 -740 0 -740 1283 -3 1282 -2 0 714 c0
783 -1 802 -61 981 -65 193 -163 350 -313 501 -190 191 -423 314 -680 358
-112 20 -265 26 -362 15z m435 -63 c57 -15 140 -42 183 -61 216 -93 459 -316
591 -542 53 -91 130 -307 146 -413 12 -73 15 -459 4 -499 -5 -20 -12 -21 -149
-21 l-144 0 0 -25 c0 -13 11 -93 25 -177 52 -316 77 -597 61 -681 -6 -32 -11
-37 -34 -37 l-27 0 -2 138 c-2 166 -21 350 -74 707 -48 325 -137 816 -150 829
-5 5 -36 12 -69 14 l-60 4 0 -53 c0 -102 -11 -159 -30 -159 -24 0 -30 -20 -30
-105 0 -107 2 -105 -99 -105 -94 0 -136 -14 -136 -45 0 -16 11 -22 55 -31 l55
-10 18 -65 c17 -61 17 -71 1 -236 l-18 -173 -81 0 -82 0 -6 272 c-4 149 -7
402 -7 563 l0 291 -75 55 -74 54 -1 65 0 65 -77 93 c-61 74 -79 90 -88 80 -7
-7 -94 -156 -194 -332 l-181 -318 0 -466 c0 -256 -2 -463 -5 -460 -3 3 -26 95
-50 204 -25 110 -55 237 -68 284 l-23 85 -36 3 c-48 4 -104 -25 -165 -86 -43
-43 -52 -60 -86 -166 -20 -65 -52 -186 -69 -269 -30 -141 -32 -166 -32 -352 0
-196 2 -220 40 -352 5 -17 2 -23 -10 -23 -24 0 -51 68 -71 175 -32 168 -12
350 82 773 5 19 1 22 -28 22 -27 0 -31 3 -19 11 11 7 -22 9 -110 6 -70 -3
-110 -2 -90 3 l35 7 -39 2 -38 1 5 223 c5 253 20 334 97 514 141 331 482 634
800 712 146 36 190 40 360 36 136 -3 183 -8 269 -29z m-104 -636 l28 -29 -6
-383 c-6 -384 -14 -648 -20 -654 -8 -8 -70 39 -74 56 -3 11 -9 18 -13 15 -15
-9 -53 102 -62 184 -5 46 -7 85 -4 88 3 3 22 -4 42 -16 52 -31 52 -20 0 16
l-44 31 -17 -54 c-9 -30 -21 -57 -26 -60 -10 -6 -9 3 12 86 6 25 14 139 18
254 l6 209 35 -28 c26 -21 23 -16 -13 22 l-49 50 -1 99 c0 59 4 108 11 121 7
12 12 37 12 55 0 59 17 62 80 12 31 -24 69 -57 85 -74z m-413 -41 c29 -57 33
-106 19 -206 -5 -38 -17 -63 -46 -98 -26 -33 -32 -44 -17 -36 11 6 30 23 41
37 12 15 23 25 25 23 2 -2 -3 -26 -12 -54 -10 -33 -16 -108 -19 -225 l-4 -175
-34 -40 c-77 -92 -134 -149 -142 -142 -4 5 -10 168 -11 363 l-4 354 53 92 c81
143 99 170 112 165 6 -2 24 -28 39 -58z m933 -142 c4 -13 5 -103 3 -201 -2
-144 -6 -179 -18 -186 -12 -8 -11 -10 8 -10 22 0 22 1 23 148 l1 147 14 -80
c8 -44 19 -93 24 -110 23 -76 78 -488 106 -800 17 -190 22 -484 10 -522 -8
-26 -32 -28 -169 -17 l-77 7 0 348 0 349 -27 1 c-16 0 -59 0 -97 -1 l-68 -1 6
118 c4 65 10 133 13 151 5 28 7 31 21 20 14 -11 15 -10 8 7 -12 29 -56 169
-56 178 0 4 30 8 68 8 62 2 59 3 -48 14 -63 7 -122 13 -130 14 -11 1 -12 3 -1
14 8 8 50 12 129 13 l117 0 -4 102 -3 102 31 0 31 0 0 105 0 105 40 0 c33 0
41 -4 45 -23z m-1335 -422 c0 -22 -68 -85 -114 -106 -81 -37 -100 -16 -40 44
60 59 154 98 154 62z m39 -112 c44 -165 88 -434 98 -605 l6 -98 -34 0 c-61 0
-61 1 -60 -203 l1 -186 -54 -6 c-65 -8 -252 -3 -262 8 -4 4 -18 56 -31 115
-19 82 -25 149 -29 287 -5 165 -4 191 20 310 14 72 40 176 57 233 30 96 34
102 59 102 37 0 120 44 160 85 19 19 37 35 41 35 4 0 16 -35 28 -77z m302
-210 c-19 -38 -51 -74 -51 -57 0 4 -9 -2 -20 -14 -24 -26 -45 -28 -54 -7 -4
10 20 42 67 92 67 71 72 74 75 50 2 -14 -6 -43 -17 -64z m893 -345 c0 -79 -4
-232 -9 -340 l-7 -198 -119 0 -119 0 0 195 c0 179 -1 195 -17 196 -10 0 -78 0
-150 -1 -105 0 -133 2 -133 13 0 25 39 222 50 252 l10 30 248 -2 247 -2 -1
-143z m-276 -355 l-3 -188 -160 -3 c-88 -2 -188 0 -222 3 l-63 7 0 184 0 184
225 0 225 0 -2 -187z m-811 60 c-3 -27 -3 -39 0 -28 3 11 9 25 15 30 12 12 1
-51 -13 -75 -7 -12 -9 -11 -9 5 l-1 20 -9 -20 c-5 -11 -9 -32 -9 -47 -1 -21
-6 -28 -21 -28 -17 0 -20 7 -20 46 0 35 3 45 14 41 10 -4 19 11 31 49 9 30 19
54 22 54 3 0 3 -21 0 -47z m-47 -34 c0 -5 -4 -9 -10 -9 -5 0 -10 7 -10 16 0 8
5 12 10 9 6 -3 10 -10 10 -16z m20 -164 c0 -40 -2 -45 -23 -45 -20 0 -22 4
-19 45 3 36 8 45 23 45 16 0 19 -7 19 -45z m22 -10 c3 -14 1 -28 -3 -31 -5 -3
-9 9 -9 25 0 38 6 40 12 6z"/>
<path d="M2938 1803 c23 -2 61 -2 85 0 23 2 4 4 -43 4 -47 0 -66 -2 -42 -4z"/>
<path d="M2280 1706 l0 -74 30 -4 c40 -6 46 4 55 85 l7 67 -46 0 -46 0 0 -74z"/>
<path d="M1594 2188 l-19 -23 23 19 c21 18 27 26 19 26 -2 0 -12 -10 -23 -22z"/>
<path d="M1374 1715 c0 -49 1 -71 3 -48 2 23 2 64 0 90 -2 26 -3 8 -3 -42z"/>
<path d="M1900 1195 c0 -14 4 -25 9 -25 5 0 7 9 4 20 -5 19 1 20 183 23 l189
2 -192 3 -193 2 0 -25z"/>
<path d="M1909 1007 c5 -5 19 -7 32 -5 20 3 19 5 -9 9 -20 3 -29 2 -23 -4z"/>
<path d="M1902 940 c0 -14 2 -19 5 -12 2 6 2 18 0 25 -3 6 -5 1 -5 -13z"/>
<path d="M3097 2972 c-35 -39 -9 -102 41 -102 28 0 62 34 62 60 0 27 -35 60
-63 60 -13 0 -31 -8 -40 -18z"/>
<path d="M3220 2751 c0 -5 3 -16 6 -25 6 -15 341 -16 3700 -16 l3694 0 0 25 0
25 -3700 0 c-2240 0 -3700 -4 -3700 -9z"/>
<path d="M10690 2737 l0 -25 188 -4 c179 -4 189 -5 238 -30 28 -15 65 -43 82
-62 62 -71 63 -78 60 -752 -3 -577 -4 -611 -22 -648 -24 -48 -80 -104 -126
-125 -32 -15 -366 -16 -3890 -21 l-3855 -5 -2 -113 -2 -112 3952 2 3952 3 50
27 c62 32 129 103 158 166 22 47 22 53 22 667 l0 620 -22 48 c-33 69 -69 113
-124 149 -28 18 -60 50 -74 75 -34 57 -87 107 -143 134 -43 21 -64 23 -244 27
l-198 4 0 -25z m738 -545 l23 -24 -31 -34 c-16 -19 -30 -40 -30 -47 0 -7 -6
-3 -12 8 -6 11 -22 33 -37 48 -24 26 -25 29 -8 38 9 6 24 24 33 42 16 30 18
30 28 12 6 -10 21 -30 34 -43z"/>
<path d="M1320 741 c-24 -7 -42 -41 -21 -41 24 0 61 21 61 35 0 16 -2 17 -40
6z"/>
<path d="M1228 689 c-27 -16 -23 -40 5 -30 12 5 32 5 44 0 24 -9 42 6 27 21
-16 15 -58 20 -76 9z"/>
<path d="M2212 684 c5 -29 98 -43 98 -15 0 10 -13 15 -68 26 -29 6 -33 4 -30
-11z"/>
<path d="M2928 689 c-10 -5 -18 -17 -18 -26 0 -10 5 -13 18 -8 22 10 32 10 60
1 28 -9 31 18 3 34 -24 12 -41 12 -63 -1z"/>
<path d="M2130 650 c0 -5 -11 -12 -25 -16 -21 -5 -24 -12 -27 -57 l-3 -52 -35
0 -35 0 -3 53 -3 53 -32 -3 c-28 -3 -32 -7 -35 -34 -2 -18 1 -47 5 -65 16 -63
113 -87 178 -45 21 14 25 24 25 70 0 35 5 58 15 66 21 18 19 40 -5 40 -11 0
-20 -4 -20 -10z"/>
<path d="M2321 646 c-7 -8 -21 -12 -31 -9 -31 8 -89 -6 -111 -28 -29 -29 -26
-89 6 -119 21 -20 37 -24 82 -24 48 0 58 3 79 27 26 31 30 63 12 102 -9 19 -9
28 0 37 7 7 12 16 12 20 0 13 -37 9 -49 -6z m-16 -76 c3 -6 3 -19 0 -30 -5
-15 -15 -20 -40 -20 -25 0 -35 5 -40 20 -9 29 2 40 40 40 19 0 37 -5 40 -10z"/>
<path d="M1204 630 c-80 -32 -65 -148 21 -164 45 -9 112 9 125 34 13 24 13 76
0 100 -18 33 -98 50 -146 30z m91 -80 c0 -21 -5 -26 -31 -28 -35 -3 -58 17
-48 42 5 13 16 16 43 14 31 -3 36 -6 36 -28z"/>
<path d="M1765 633 c-49 -13 -75 -67 -55 -117 14 -39 72 -61 120 -47 19 6 45
8 58 4 22 -5 22 -3 21 61 -1 59 -5 69 -25 83 -25 16 -87 25 -119 16z m82 -60
c15 -6 13 -8 -11 -13 -34 -6 -48 -30 -17 -30 12 0 21 -4 21 -10 0 -17 -58 -11
-69 7 -21 39 24 66 76 46z"/>
<path d="M2893 632 c-22 -3 -23 -8 -23 -83 l0 -79 91 0 c88 0 90 1 87 23 -3
19 -11 23 -58 28 l-55 5 55 5 c40 3 55 8 55 19 0 11 -14 16 -52 18 -70 4 -68
22 2 22 48 0 55 2 55 20 0 12 -7 20 -17 21 -47 3 -120 4 -140 1z"/>
<path d="M690 550 l0 -80 30 0 c23 0 30 4 30 20 0 17 7 20 49 20 57 0 81 18
81 60 0 48 -22 60 -111 60 l-79 0 0 -80z m130 20 c0 -5 -16 -10 -35 -10 -19 0
-35 5 -35 10 0 6 16 10 35 10 19 0 35 -4 35 -10z"/>
<path d="M910 550 l0 -80 29 0 c25 0 30 4 33 28 3 25 6 27 48 27 42 0 45 -2
48 -27 3 -24 8 -28 33 -28 l29 0 0 80 0 80 -30 0 c-25 0 -30 -4 -30 -25 0 -23
-3 -25 -50 -25 -47 0 -50 2 -50 25 0 21 -5 25 -30 25 l-30 0 0 -80z"/>
<path d="M1464 616 c-3 -7 -4 -42 -2 -77 3 -64 3 -64 35 -67 31 -3 32 -2 35
40 l3 43 30 -42 c27 -39 34 -43 73 -43 l42 0 0 80 0 80 -29 0 c-28 0 -30 -2
-33 -46 l-3 -46 -32 46 c-30 42 -36 46 -73 46 -25 0 -43 -5 -46 -14z"/>
<path d="M2384 617 c-3 -8 -4 -43 -2 -78 3 -64 3 -64 33 -64 l30 0 0 75 c0 74
0 75 -28 78 -17 2 -29 -2 -33 -11z"/>
<path d="M2564 605 c4 -14 18 -51 31 -81 l24 -55 48 3 48 3 27 65 c14 36 27
71 27 78 1 20 -60 15 -65 -5 -3 -10 -13 -36 -23 -58 l-18 -40 -20 55 c-19 50
-24 55 -53 58 -31 3 -32 2 -26 -23z"/>
<path d="M2790 550 l0 -80 30 0 30 0 0 80 0 80 -30 0 -30 0 0 -80z"/>
<path d="M3062 608 c2 -18 11 -24 35 -26 31 -3 32 -5 35 -55 3 -48 5 -52 31
-55 27 -3 27 -2 27 52 l0 56 34 0 c38 0 49 10 40 34 -5 13 -24 16 -106 16 -97
0 -99 0 -96 -22z"/>
<path d="M2930 435 c0 -10 10 -15 30 -15 20 0 30 5 30 15 0 10 -10 15 -30 15
-20 0 -30 -5 -30 -15z"/>
</g>
</svg>
